<svg id="search-newspaper" xmlns="http://www.w3.org/2000/svg" xmlns:xlink="http://www.w3.org/1999/xlink" viewBox="0 0 400 250" shape-rendering="geometricPrecision" text-rendering="geometricPrecision">
<style><![CDATA[
#search-newspaper-u-shadow_to {animation: search-newspaper-u-shadow_to__to 3000ms linear infinite normal forwards}@keyframes search-newspaper-u-shadow_to__to { 0% {transform: translate(498.546227px,212.073691px)} 16.666667% {transform: translate(269px,212px)} 83.333333% {transform: translate(269px,212px)} 100% {transform: translate(-105px,212px)}} #search-newspaper-u-paper-sm_to {animation: search-newspaper-u-paper-sm_to__to 3000ms linear infinite normal forwards}@keyframes search-newspaper-u-paper-sm_to__to { 0% {offset-distance: 0%} 16.666667% {offset-distance: 37.139794%} 83.333333% {offset-distance: 37.139794%} 100% {offset-distance: 100%}} #search-newspaper-u-paper-lg_to {animation: search-newspaper-u-paper-lg_to__to 3000ms linear infinite normal forwards}@keyframes search-newspaper-u-paper-lg_to__to { 0% {transform: translate(273.150002px,115.449997px)} 16.666667% {transform: translate(273.150002px,115.449997px)} 83.333333% {transform: translate(273px,115.449997px)} 100% {transform: translate(-100px,115.449997px)}} #search-newspaper-s-g3_to {animation: search-newspaper-s-g3_to__to 3000ms linear infinite normal forwards}@keyframes search-newspaper-s-g3_to__to { 0% {transform: translate(0px,0px)} 16.666667% {transform: translate(0px,0px)} 33.333333% {transform: translate(76.718971px,-67.85px)} 46.666667% {transform: translate(191.609485px,-75.25px)} 60% {transform: translate(185.71975px,14px)} 70% {transform: translate(82.41897px,11.85px)} 83.333333% {transform: translate(-7.432995px,0px)} 100% {transform: translate(-7.432995px,0px)}} #search-newspaper-u-magnify_to {animation: search-newspaper-u-magnify_to__to 3000ms linear infinite normal forwards}@keyframes search-newspaper-u-magnify_to__to { 0% {transform: translate(115.468826px,155.000008px)} 16.666667% {transform: translate(115.468826px,155.000008px)} 33.333333% {transform: translate(192.187797px,87.150008px)} 46.666667% {transform: translate(307.078312px,79.750008px)} 60% {transform: translate(301.188578px,169.000008px)} 70% {transform: translate(197.887797px,166.850008px)} 83.333333% {transform: translate(108.035832px,155.000008px)} 100% {transform: translate(108.035832px,155.000008px)}} #search-newspaper-s-path29 {animation: search-newspaper-s-path29_c_o 3000ms linear infinite normal forwards}@keyframes search-newspaper-s-path29_c_o { 0% {opacity: 1} 26.666667% {opacity: 1} 36.666667% {opacity: 0} 60% {opacity: 0} 73.333333% {opacity: 1} 100% {opacity: 1}}
]]></style>
<g id="search-newspaper-u-shadow_to" transform="translate(498.546227,212.073691)"><rect id="search-newspaper-u-shadow" width="100" height="12" rx="6" ry="6" transform="translate(-50,-6)" fill="#e8e6e6" stroke-width="0"/></g><g id="search-newspaper-u-paper-sm_to" style="offset-path:path('M486.896229,100.500007C437.35964,135.503223,346.022106,154.852379,273.150002,135.299999L273.150002,135.299999C198.274268,108.890177,37.46487,90.687977,-98.073559,134.800004');offset-rotate:0deg"><g id="search-newspaper-u-paper-sm" transform="translate(-273.150002,-135.299999)"><g id="search-newspaper-u-paper"><path id="search-newspaper-s-path1" d="M226,84h58.8v31.4h-58.8v-31.4Z" fill="#282828" stroke-width="0"/><path id="search-newspaper-s-path2" d="M226,68.3h86.4v7.9h-86.4v-7.9Z" fill="#282828" stroke-width="0"/><path id="search-newspaper-s-path3" d="M273.2,154.7h23.6v7.9h-23.6v-7.9Z" fill="#282828" stroke-width="0"/><path id="search-newspaper-s-path4" d="M289.1,84.2h23.6v7.9h-23.6v-7.9Z" fill="#282828" stroke-width="0"/><path id="search-newspaper-s-path5" d="M289.1,95.9h23.6v7.9h-23.6v-7.9Z" fill="#282828" stroke-width="0"/><path id="search-newspaper-s-path6" d="M289.1,107.7h23.6v7.9h-23.6v-7.9Z" fill="#282828" stroke-width="0"/><path id="search-newspaper-s-path7" d="M273.2,139h39.3v7.9h-39.3v-7.9Z" fill="#282828" stroke-width="0"/><path id="search-newspaper-s-path8" d="M273.2,123.3h39.3v7.9h-39.3v-7.9Z" fill="#282828" stroke-width="0"/><path id="search-newspaper-s-path9" d="M226,154.7h39.3v7.9h-39.3v-7.9Z" fill="#282828" stroke-width="0"/><path id="search-newspaper-s-path10" d="M226,139h39.3v7.9h-39.3v-7.9Z" fill="#282828" stroke-width="0"/><path id="search-newspaper-s-path11" d="M226,123.3h39.3v7.9h-39.3v-7.9Z" fill="#282828" stroke-width="0"/><path id="search-newspaper-s-path12" d="M328.1,68.3v-15.7h-117.8v113.9c0,6.5,5.3,11.8,11.8,11.8h102.1c6.5,0,11.8-5.3,11.8-11.8v-98.2h-7.9Zm-106,102.1c-2.2,0-3.9-1.8-3.9-3.9v-106h102.1v98.2c0,11.8,7.9,11.8,7.9,11.8h-106l-.1-.1Z" fill="#282828" stroke-width="0"/></g></g></g><g id="search-newspaper-u-paper-lg_to" transform="translate(273.150002,115.449997)"><g id="search-newspaper-u-paper-lg" transform="translate(-273.150002,-115.449997)"><g id="search-newspaper-s-g1" mask="url(#search-newspaper-u-clippath)"><g id="search-newspaper-s-g2"><g id="search-newspaper-u-paper-lg2"><path id="search-newspaper-s-path13" d="M210.2,183.2c-2.7,0-4.8-2.2-4.8-4.8v-130.7h125.9v121c0,14.5,9.7,14.5,9.7,14.5h-130.7-.1Z" fill="#fff" stroke-width="0"/><path id="search-newspaper-s-path14" d="M215.1,76.7h72.4v38.7h-72.4v-38.7Z" fill="#282828" stroke-width="0"/><path id="search-newspaper-s-path15" d="M215.1,57.4h106.5v9.7h-106.5v-9.7Z" fill="#282828" stroke-width="0"/><path id="search-newspaper-s-path16" d="M273.2,163.9h29v9.7h-29v-9.7Z" fill="#282828" stroke-width="0"/><path id="search-newspaper-s-path17" d="M292.8,76.9h29v9.7h-29v-9.7Z" fill="#282828" stroke-width="0"/><path id="search-newspaper-s-path18" d="M292.8,91.4h29v9.7h-29v-9.7Z" fill="#282828" stroke-width="0"/><path id="search-newspaper-s-path19" d="M292.8,105.9h29v9.7h-29v-9.7Z" fill="#282828" stroke-width="0"/><path id="search-newspaper-s-path20" d="M273.2,144.5h48.4v9.7h-48.4v-9.7Z" fill="#282828" stroke-width="0"/><path id="search-newspaper-s-path21" d="M273.2,125.1h48.4v9.7h-48.4v-9.7Z" fill="#282828" stroke-width="0"/><path id="search-newspaper-s-path22" d="M215.1,163.9h48.4v9.7h-48.4v-9.7Z" fill="#282828" stroke-width="0"/><path id="search-newspaper-s-path23" d="M215.1,144.5h48.4v9.7h-48.4v-9.7Z" fill="#282828" stroke-width="0"/><path id="search-newspaper-s-path24" d="M215.1,125.1h48.4v9.7h-48.4v-9.7Z" fill="#282828" stroke-width="0"/><path id="search-newspaper-s-path25" d="M340.9,57.4v-19.4h-145.2v140.4c0,8,6.5,14.5,14.5,14.5h125.9c8,0,14.5-6.5,14.5-14.5v-121h-9.7ZM210.2,183.2c-2.7,0-4.8-2.2-4.8-4.8v-130.7h125.9v121c0,14.5,9.7,14.5,9.7,14.5h-130.7-.1Z" fill="#282828" stroke-width="0"/></g></g><mask id="search-newspaper-u-clippath"><g id="search-newspaper-s-g3_to" transform="translate(0,0)"><g id="search-newspaper-s-g3" transform="translate(0,0)"><path id="search-newspaper-s-path26" d="M128.5,101.4c-22.5,0-40.8,18.2-40.9,40.5c0,22.5,18.2,40.9,40.8,41.1c22.3.1,40.8-18.3,40.8-40.6c0-22.7-18-40.9-40.7-41Z" fill="#fff" stroke-width="0"/></g></g></mask></g></g></g><g id="search-newspaper-u-magnify_to" transform="translate(115.468826,155.000008)"><g id="search-newspaper-u-magnify" transform="translate(-115.468826,-155.000008)"><g id="search-newspaper-u-searchicon"><g id="search-newspaper-s-g4"><path id="search-newspaper-s-path27" d="M59.2,224.5c-3.2,0-6.4-1.4-9-4.1-4.2-4.2-5.2-9.3-2.8-14.4c1.4-2.9,3.4-5.8,5.9-8.5c5.7-5.9,11.6-11.8,17.4-17.5c2.3-2.3,4.6-4.6,6.9-6.9.9-.9,2-2,2.1-2.4c0-.3-.7-1.7-1.2-2.8-8.6-16.6-8.8-35.4-.6-51.6s23.5-27.2,42-30.2c2.9-.5,5.9-.7,8.9-.7c29.2,0,53.9,22.9,56.1,52.2c2.3,30.3-19.3,57-49.2,60.7-1.6.2-3.2.2-4.7.3-.7,0-1.4,0-2.1,0h-.7c-8.8,0-17.3-2.2-26-6.8-.7-.4-2-1.1-2.5-1.1s-1.5,1.2-2,1.7c-2.4,2.4-4.8,4.8-7.3,7.3-5.7,5.7-11.6,11.6-17.5,17.4-2.6,2.5-5.5,4.6-8.5,5.9-1.8.8-3.6,1.2-5.4,1.2l.2.3Zm69.2-121.1c-21.4,0-38.8,17.3-38.9,38.5c0,21.4,17.3,38.9,38.8,39.1h.2c21.2,0,38.6-17.3,38.6-38.6c0-10.5-4-20.3-11.3-27.6s-17-11.3-27.4-11.3v-2c0,0,0,2,0,2v-.1Z" fill="#282828" stroke-width="0"/><path id="search-newspaper-s-path28" d="M128.7,87.5c27.8,0,51.9,21.7,54.1,50.3c2.3,30.3-19.8,55.2-47.4,58.6-2.2.3-4.4.2-6.6.3-.2,0-.4,0-.6,0-8.9,0-17.2-2.4-25-6.6-1.6-.9-2.6-1.3-3.4-1.3-1,0-1.9.7-3.4,2.3-8.2,8.2-16.4,16.5-24.7,24.6-2.3,2.2-5,4.2-7.9,5.6-1.5.7-3.1,1.1-4.5,1.1-2.7,0-5.3-1.2-7.6-3.5-3.5-3.5-4.4-7.7-2.4-12.1c1.3-2.9,3.3-5.6,5.6-7.9c8-8.2,16.1-16.2,24.2-24.4c3.3-3.3,3.3-3.4,1.2-7.5-17.4-33.6,2.5-73,39.9-79c2.9-.5,5.8-.7,8.6-.7m-.3,95.7c22.2,0,40.6-18.4,40.6-40.6c0-22.7-18-40.9-40.7-41c0,0,0,0,0,0-22.4,0-40.8,18.2-40.9,40.5c0,22.5,18.2,40.9,40.8,41.1c0,0,.1,0,.2,0m.2-99.5v0c-3.1,0-6.2.2-9.2.7-19.1,3.1-34.9,14.5-43.4,31.3s-8.3,36.3.6,53.5c.2.5.5,1,.8,1.5-.4.4-.9.9-1.3,1.3-2.3,2.3-4.6,4.6-6.9,6.8-5.7,5.7-11.7,11.6-17.4,17.6-2.7,2.8-4.9,5.9-6.3,9-2.7,5.8-1.6,11.9,3.2,16.6c3,3,6.6,4.7,10.4,4.7s4.2-.5,6.2-1.4c3.1-1.5,6.3-3.6,9-6.3c5.9-5.7,11.8-11.7,17.6-17.4c2.4-2.4,4.8-4.8,7.2-7.2.2-.2.6-.6.9-.9.4.2,1,.5,1.2.6c8.9,4.7,17.7,7,26.9,7s.4,0,.6,0v0c0,0,0,0,0,0c.7,0,1.3,0,2,0c1.6,0,3.2,0,4.9-.3c14.6-1.8,28-9.1,37.5-20.6c9.8-11.8,14.6-26.8,13.4-42.2-2.3-30.3-27.9-54-58.1-54v0l.2-.3Zm-.2,95.5h-.2c-20.4-.1-36.9-16.7-36.8-37c0-20.2,16.6-36.5,36.9-36.5c9.9,0,19.1,3.8,26,10.7c6.9,7,10.7,16.3,10.7,26.2c0,20.2-16.5,36.6-36.6,36.6v0Z" fill="#fff" stroke-width="0"/></g><path id="search-newspaper-s-path29" d="M132.5,109.4c2.5.5,6.4,1.2,10.2,2.3c4.4,1.3,6,4.2,4.9,7.6-1.1,3.1-4,4-8.2,2.6-10.2-3.2-19.1-1.2-26.5,6.6-1.7,1.8-3,4.1-4.2,6.3-1.9,3.3-4.8,4.5-7.6,3.1-2.8-1.3-3.7-4.5-2.1-7.9c6.6-13.4,17.6-19.9,33.7-20.7l-.2.1Z" fill="#282828" stroke-width="0"/></g></g></g><path id="search-newspaper-s-path30" d="" fill="none" stroke="#3f5787" stroke-width="0.8"/></svg>
