<?xml version="1.0" encoding="UTF-8"?>
<svg id="Layer_2" data-name="Layer 2" xmlns="http://www.w3.org/2000/svg" version="1.1" viewBox="0 0 140 109.1">
  <defs>
    <style>
      .cls-1 {
        fill: #000;
      }

      .cls-1, .cls-2, .cls-3 {
        stroke-width: 0px;
      }

      .cls-2 {
        fill: #282828;
      }

      .cls-4 {
        isolation: isolate;
      }

      .cls-3 {
        fill: #fff;
      }
    </style>
  </defs>
  <g id="paper-sm">
    <g id="paper">
      <path class="cls-2" d="M88.2,59.2l23.1,7.5-4,12.4-23.1-7.5s4-12.4,4-12.4Z"/>
      <path class="cls-2" d="M90.2,53.1l34,11-1,3.1-34-11,1-3.1Z"/>
      <path class="cls-2" d="M97.7,93.1l9.3,3-1,3.1-9.3-3,1-3.1Z"/>
      <path class="cls-2" d="M113,67.4l9.3,3-1,3.1-9.3-3,1-3.1Z"/>
      <path class="cls-2" d="M111.5,72l9.3,3-1,3.1-9.3-3,1-3.1Z"/>
      <path class="cls-2" d="M110,76.6l9.3,3-1,3.1-9.3-3,1-3.1Z"/>
      <path class="cls-2" d="M99.7,86.9l15.4,5-1,3.1-15.4-5,1-3.1Z"/>
      <path class="cls-2" d="M101.8,80.7l15.4,5-1,3.1-15.4-5,1-3.1Z"/>
      <path class="cls-2" d="M79.2,87l15.4,5-1,3.1-15.4-5,1-3.1Z"/>
      <path class="cls-2" d="M81.2,80.9l15.4,5-1,3.1-15.4-5,1-3.1Z"/>
      <path class="cls-2" d="M83.2,74.7l15.4,5-1,3.1-15.4-5,1-3.1Z"/>
      <path class="cls-2" d="M130.4,66.1l2-6.2-46.3-15.1-14.6,44.8c-.8,2.6.6,5.3,3.1,6.1l40.2,13c2.6.8,5.3-.6,6.1-3.1l12.5-38.6-3.1-1h.1ZM75.7,92.7c-.9-.3-1.3-1.2-1-2l13.5-41.7,40.2,13-12.5,38.6c-1.5,4.6,1.6,5.6,1.6,5.6l-41.7-13.5h0Z"/>
    </g>
    <g id="paper-2">
      <path class="cls-2" d="M47,56.3l-23,7.8,4.2,12.3,23-7.8-4.2-12.3Z"/>
      <path class="cls-2" d="M44.9,50.1l-33.8,11.5,1,3.1,33.8-11.5-1-3.1Z"/>
      <path class="cls-2" d="M37.9,90.2l-9.2,3.1,1,3.1,9.2-3.1-1-3.1Z"/>
      <path class="cls-2" d="M22.3,64.7l-9.2,3.1,1,3.1,9.2-3.1-1-3.1Z"/>
      <path class="cls-2" d="M23.9,69.3l-9.2,3.1,1,3.1,9.2-3.1-1-3.1Z"/>
      <path class="cls-2" d="M25.4,73.9l-9.2,3.1,1,3.1,9.2-3.1s-1-3.1-1-3.1Z"/>
      <path class="cls-2" d="M35.8,84.1l-15.4,5.2,1,3.1,15.4-5.2-1-3.1Z"/>
      <path class="cls-2" d="M33.7,77.9l-15.4,5.2,1,3.1,15.4-5.2-1-3.1Z"/>
      <path class="cls-2" d="M56.4,84l-15.4,5.2,1,3.1,15.4-5.2-1-3.1Z"/>
      <path class="cls-2" d="M54.3,77.8l-15.4,5.2,1,3.1,15.4-5.2s-1-3.1-1-3.1Z"/>
      <path class="cls-2" d="M52.2,71.7l-15.4,5.2,1,3.1,15.4-5.2s-1-3.1-1-3.1Z"/>
      <path class="cls-2" d="M1.8,64.7l13,38.5c.9,2.5,3.6,3.9,6.2,3.1l40-13.5c2.5-.9,3.9-3.6,3.1-6.2l-15.1-44.6L2.8,57.5l2.1,6.2s-3.1,1-3.1,1ZM18.5,103.7s3.1-1,1.5-5.7L6.9,59.5l40-13.5,14.1,41.5c.3.8-.2,1.8-1,2.1l-41.5,14.1Z"/>
    </g>
    <rect class="cls-3" x="38.7" y="30" width="96.8" height="18.8"/>
    <path class="cls-3" d="M140,53.3H34.2v-27.8h105.8v27.8ZM43.2,44.3h87.8v-9.8H43.2v9.8Z"/>
    <g>
      <g>
        <path class="cls-1" d="M134.3,50.3H38.1v-21.8h96.2v21.8ZM41,47.3h90.4v-15.8H41v15.8Z"/>
        <g>
          <g class="cls-4">
            <g class="cls-4">
              <path class="cls-1" d="M80.3,34.3h3.1l-3.9,10.6h-4.3l-3.2-8.2-3.3,8.2h-4.3l-3.8-10.6h3.1l2.9,8.3,3.3-8.3h4.2l3.2,8.3,2.9-8.3Z"/>
            </g>
            <g class="cls-4">
              <path class="cls-1" d="M94.1,44.9l-1-2h-6.6l-1,2h-3.3l5.5-10.6h4.3l5.5,10.6h-3.3ZM87.7,40.6h4.2l-2.1-4.2-2.1,4.2Z"/>
            </g>
            <g class="cls-4">
              <path class="cls-1" d="M111.5,42.6v2.3h-3.1v-1.8c0-1-.2-1.3-1.3-1.3h-5v3h-3.1v-10.6h8.2c2.8,0,4.3,1.1,4.3,3.4s-.7,2.5-1.9,2.9c1.1.1,1.8.8,1.8,2ZM102.1,36.8v2.6h4.3c.9,0,1.8,0,1.8-1.3s-.9-1.3-1.8-1.3h-4.3Z"/>
            </g>
          </g>
          <polygon class="cls-1" points="50.6 35.5 51.7 38.7 55.1 38.7 52.3 40.8 53.4 44 50.6 42 47.9 44 48.9 40.8 46.1 38.7 49.6 38.7 50.6 35.5"/>
          <polygon class="cls-1" points="121.7 35.3 122.8 38.5 126.2 38.5 123.4 40.5 124.5 43.8 121.7 41.8 119 43.8 120 40.5 117.2 38.5 120.7 38.5 121.7 35.3"/>
        </g>
      </g>
      <rect class="cls-1" x="3.7" y="7.5" width="64.1" height="29.6" transform="translate(-4.4 9.7) rotate(-14.5)"/>
      <g class="cls-4">
        <g class="cls-4">
          <path class="cls-3" d="M12.3,19l13.7-3.5c4.2-1.1,7.6.9,8.7,5.4,1.2,4.5-.8,7.9-5,9l-8.6,2.2,1.3,5-5.1,1.3-5-19.4ZM18.6,22.5l1.3,4.9,7.2-1.9c1.4-.4,3-.8,2.4-3.2-.6-2.4-2.3-2-3.6-1.6l-7.2,1.9Z"/>
        </g>
        <g class="cls-4">
          <path class="cls-3" d="M61.3,22.4l1.1,4.3-5,1.3-.8-3.2c-.5-1.8-1-2.2-2.7-1.8l-8.2,2.1,1.4,5.5-5.1,1.3-5-19.4,13.4-3.5c4.5-1.2,7.6.2,8.6,4.3.7,2.8,0,4.8-1.7,6.1,1.9-.3,3.4.7,3.9,2.9ZM43.3,15.9l1.2,4.7,7.1-1.8c1.5-.4,3-.8,2.4-3.1-.6-2.4-2.1-2-3.6-1.6l-7.1,1.8Z"/>
        </g>
      </g>
    </g>
    <g>
      <circle class="cls-1" cx="71.1" cy="80.4" r="15"/>
      <path class="cls-3" d="M71.1,97.4c-9.4,0-17-7.6-17-17s7.6-17,17-17,17,7.6,17,17-7.6,17-17,17ZM71.1,67.4c-7.2,0-13,5.8-13,13s5.8,13,13,13,13-5.8,13-13-5.8-13-13-13Z"/>
    </g>
    <path class="cls-3" d="M69,77.5h1.8l-2.3,7h-2.6l-2.3-7h1.8l1.8,5.6s1.8-5.6,1.8-5.6Z"/>
    <path class="cls-3" d="M73.9,82.2c0,.6.2.8,1.4.8s1.2-.2,1.2-.6-.3-.5-1.5-.7c-1.9-.2-2.9-.5-2.9-2.1s1.4-2.4,3-2.4,3,.6,3,2.4h-1.9c0-.5-.4-.7-1.2-.7s-1.1.2-1.1.5.2.4,1.4.6c1.8.2,2.9.4,2.9,2.2s-1.2,2.5-3,2.5-3.3-.6-3.3-2.6h2Z"/>
  </g>
</svg>