<svg width="78" height="40" viewBox="0 0 78 40" fill="none" xmlns="http://www.w3.org/2000/svg">
<path d="M51.2099 10.1793L64.9014 14.618L62.5306 21.9566L48.8391 17.5179L51.2099 10.1793Z" fill="#282828"/>
<path d="M52.3954 6.56921L72.5474 13.0793L71.9547 14.9139L51.8027 8.40386L52.3954 6.56921Z" fill="#282828"/>
<path d="M56.8408 30.2422L62.3529 32.0177L61.7602 33.8523L56.248 32.0768L56.8408 30.2422Z" fill="#282828"/>
<path d="M65.9091 15.0323L71.4213 16.8078L70.8286 18.6425L65.3164 16.867L65.9091 15.0323Z" fill="#282828"/>
<path d="M65.0202 17.7546L70.5324 19.5301L69.9397 21.3648L64.4275 19.5893L65.0202 17.7546Z" fill="#282828"/>
<path d="M64.131 20.4771L69.6432 22.2525L69.0505 24.0872L63.5383 22.3117L64.131 20.4771Z" fill="#282828"/>
<path d="M58.0261 26.5729L67.1537 29.532L66.561 31.3666L57.4333 28.4075L58.0261 26.5729Z" fill="#282828"/>
<path d="M59.2709 22.9036L68.3986 25.8627L67.8059 27.6973L58.6782 24.7382L59.2709 22.9036Z" fill="#282828"/>
<path d="M45.8757 26.632L55.0033 29.5911L54.4106 31.4257L45.283 28.4666L45.8757 26.632Z" fill="#282828"/>
<path d="M47.061 23.0219L56.1886 25.981L55.5959 27.8156L46.4683 24.8565L47.061 23.0219Z" fill="#282828"/>
<path d="M48.2465 19.3527L57.3742 22.3118L56.7815 24.1464L47.6538 21.1873L48.2465 19.3527Z" fill="#282828"/>
<path d="M76.2221 14.2629L77.4075 10.5936L49.9653 1.6571L41.3118 28.1708C40.8376 29.7095 41.6674 31.3074 43.1491 31.7809L66.9759 39.4746C68.5169 39.948 70.1172 39.1195 70.5914 37.6399L78.0002 14.7956L76.1628 14.2037H76.2221V14.2629ZM43.8011 30.0054C43.2677 29.8279 43.0306 29.2952 43.2084 28.8218L51.2099 4.14276L75.0367 11.8365L67.6279 34.6808C66.7388 37.4032 68.5762 37.995 68.5762 37.995L43.8604 30.0054H43.8011Z" fill="#282828"/>
<path d="M26.7904 8.46301L13.1582 13.0792L15.6476 20.3586L29.2798 15.7424L26.7904 8.46301Z" fill="#282828"/>
<path d="M25.5456 4.7937L5.51221 11.5997L6.10491 13.4343L26.1384 6.62835L25.5456 4.7937Z" fill="#282828"/>
<path d="M21.3967 28.5259L15.9438 30.3605L16.5366 32.1952L21.9894 30.3605L21.3967 28.5259Z" fill="#282828"/>
<path d="M12.1506 13.4343L6.69775 15.269L7.29046 17.1036L12.7433 15.269L12.1506 13.4343Z" fill="#282828"/>
<path d="M13.0989 16.1567L7.646 17.9914L8.2387 19.826L13.6916 17.9914L13.0989 16.1567Z" fill="#282828"/>
<path d="M13.988 18.8792L8.53516 20.7138L9.12786 22.5484L14.5807 20.7138L13.988 18.8792Z" fill="#282828"/>
<path d="M20.1521 24.9156L11.0244 27.9931L11.6171 29.8278L20.7448 26.7503L20.1521 24.9156Z" fill="#282828"/>
<path d="M18.9074 21.2465L9.77979 24.3239L10.3725 26.1586L19.5002 23.0811L18.9074 21.2465Z" fill="#282828"/>
<path d="M32.3618 24.8566L23.2341 27.934L23.8268 29.7687L32.9545 26.6912L32.3618 24.8566Z" fill="#282828"/>
<path d="M31.1172 21.1873L21.9895 24.2647L22.5822 26.0994L31.7099 23.0219L31.1172 21.1873Z" fill="#282828"/>
<path d="M29.8725 17.5771L20.7449 20.6546L21.3376 22.4893L30.4652 19.4118L29.8725 17.5771Z" fill="#282828"/>
<path d="M0 13.4344L7.70517 36.2195C8.2386 37.6991 9.83891 38.5276 11.3799 38.0542L35.0882 30.0646C36.5699 29.5319 37.3997 27.934 36.9255 26.3953L27.9757 0L0.592705 9.17325L1.83739 12.8425L0 13.4344ZM9.89818 36.5154C9.89818 36.5154 11.7356 35.9236 10.7872 33.1421L3.0228 10.3569L26.731 2.36729L35.0882 26.9279C35.266 27.4014 34.9696 27.9932 34.4954 28.1707L9.89818 36.5154Z" fill="#282828"/>
<path d="M41.0744 31.6033C45.9845 31.6033 49.965 27.6288 49.965 22.726C49.965 17.8232 45.9845 13.8486 41.0744 13.8486C36.1643 13.8486 32.1838 17.8232 32.1838 22.726C32.1838 27.6288 36.1643 31.6033 41.0744 31.6033Z" fill="black"/>
<path d="M41.0745 32.787C35.5031 32.787 30.9985 28.2892 30.9985 22.726C30.9985 17.1629 35.5031 12.665 41.0745 12.665C46.646 12.665 51.1505 17.1629 51.1505 22.726C51.1505 28.2892 46.646 32.787 41.0745 32.787ZM41.0745 15.0323C36.807 15.0323 33.3694 18.4649 33.3694 22.726C33.3694 26.9871 36.807 30.4197 41.0745 30.4197C45.342 30.4197 48.7797 26.9871 48.7797 22.726C48.7797 18.4649 45.342 15.0323 41.0745 15.0323Z" fill="#FFC532"/>
<path d="M39.83 21.0096H40.8969L39.5337 25.1524H37.9926L36.6294 21.0096H37.6963L38.7631 24.3238L39.83 21.0096Z" fill="#FFC532"/>
<path d="M42.7342 23.7913C42.7342 24.1464 42.8528 24.2647 43.564 24.2647C44.2753 24.2647 44.2753 24.1464 44.2753 23.9096C44.2753 23.6729 44.0975 23.6137 43.3862 23.4954C42.2601 23.377 41.6674 23.1994 41.6674 22.2525C41.6674 21.3056 42.4972 20.8322 43.4455 20.8322C44.3938 20.8322 45.2236 21.1872 45.2236 22.2525H44.0975C44.0975 21.9566 43.8604 21.8383 43.3862 21.8383C42.912 21.8383 42.7342 21.9566 42.7342 22.1342C42.7342 22.3117 42.8528 22.3709 43.564 22.4893C44.6309 22.6076 45.2829 22.726 45.2829 23.7913C45.2829 24.8565 44.5716 25.2708 43.5048 25.2708C42.4379 25.2708 41.5488 24.9157 41.5488 23.7321H42.7342V23.7913Z" fill="#FFC532"/>
</svg>
